<?xml version="1.0" encoding="UTF-8" standalone="no"?>
<svg
   xmlns:dc="http://purl.org/dc/elements/1.1/"
   xmlns:cc="http://creativecommons.org/ns#"
   xmlns:rdf="http://www.w3.org/1999/02/22-rdf-syntax-ns#"
   xmlns:svg="http://www.w3.org/2000/svg"
   xmlns="http://www.w3.org/2000/svg"
   xmlns:sodipodi="http://sodipodi.sourceforge.net/DTD/sodipodi-0.dtd"
   xmlns:inkscape="http://www.inkscape.org/namespaces/inkscape"
   height="281.47534"
   width="94.148613"
   fill="#000000"
   data-name="Layer 22"
   viewBox="0 0 338.93502 1013.3112"
   x="0px"
   y="0px"
   version="1.1"
   id="svg32"
   sodipodi:docname="canopy4.svg"
   inkscape:version="1.0.2-2 (e86c870879, 2021-01-15)">
  <metadata
     id="metadata38">
    <rdf:RDF>
      <cc:Work
         rdf:about="">
        <dc:format>image/svg+xml</dc:format>
        <dc:type
           rdf:resource="http://purl.org/dc/dcmitype/StillImage" />
        <dc:title>great_streets_icons_outlined</dc:title>
      </cc:Work>
    </rdf:RDF>
  </metadata>
  <defs
     id="defs36" />
  <sodipodi:namedview
     pagecolor="#ffffff"
     bordercolor="#666666"
     borderopacity="1"
     objecttolerance="10"
     gridtolerance="10"
     guidetolerance="10"
     inkscape:pageopacity="0"
     inkscape:pageshadow="2"
     inkscape:window-width="2560"
     inkscape:window-height="1312"
     id="namedview34"
     showgrid="false"
     inkscape:zoom="2.52"
     inkscape:cx="-79.510566"
     inkscape:cy="75.121156"
     inkscape:window-x="-11"
     inkscape:window-y="2149"
     inkscape:window-maximized="1"
     inkscape:current-layer="svg32"
     inkscape:document-rotation="0"
     fit-margin-top="0"
     fit-margin-left="0"
     fit-margin-right="0"
     fit-margin-bottom="0" />
  <title
     id="title2">great_streets_icons_outlined</title>
  <path
     d="M 166.70847,1013.3112 V 224.22117 c -0.0219,-2.46187 -2.01806,-4.44915 -4.48,-4.46 -2.48528,0 -4.5,2.01472 -4.5,4.5 v 48.16 c -9.34,-3.93 -27.83,-15.73 -27.83,-47.45 0,-6 -9,-6 -9,0 0,25.73 10.87,40.13 20,47.69 4.98696,4.1304 10.69217,7.30674 16.83,9.37 v 731.27003"
     id="path4"
     sodipodi:nodetypes="cccscssccc" />
  <g
     style="fill:#000000"
     id="g982"
     transform="translate(574.79834,-51.61286)">
    <path
       d="m -259.36834,168.69026 h -5.91 c 4.66,-13.92 3.7,-26.89 -2.88,-37 -7.13,-11 -19.9,-17.29 -35,-17.29 h -5.21 a 31.27,31.27 0 0 0 -41,-23.999996 57.11,57.11 0 0 0 -110.17,7.52 h -5.87 a 44.12,44.12 0 0 0 -43,54.109996 34.38,34.38 0 0 0 -18.78,19.07 19.8,19.8 0 0 0 -23.78,14.13 h -1.4 a 22.43,22.43 0 0 0 0,44.86 h 12.37 a 23,23 0 0 0 18.39,36.86 h 13.43 a 17,17 0 0 0 16.3,12.44 h 76.12 a 20.205,20.205 0 0 0 0,-40.41 h -4.12 a 25.37,25.37 0 0 0 -19.66,-17.9 27,27 0 0 0 7,-18.13 c 0,-7.45 -2.45,-13.49 -7.27,-18 -9.18,-8.52 -23.81,-8 -25.75,-7.86 a 35.10507,35.10507 0 0 1 0.14,-70.21 h 9.72 a 4.5,4.5 0 0 0 4.47,-4 48.1,48.1 0 0 1 94.56,-5.299996 4.5,4.5 0 0 0 6.59,2.889996 22.26,22.26 0 0 1 33.2,18.58 4.5,4.5 0 0 0 4.5,4.32 h 9.24 c 12,0 22,4.81 27.49,13.19 4.37,6.74 5.42,15.36 3.15,24.9 a 20.71,20.71 0 0 0 -21.68,-7.68 36.33,36.33 0 0 0 -69.19,5 h -23.51 a 28.46,28.46 0 1 0 0,56.92 h 127.51 a 23.505,23.505 0 0 0 0,-47.01 z m -276.27,75.24 a 14,14 0 0 1 11.86,-13.84 h 59.79 a 25.19,25.19 0 0 0 -3.34,5.43 15.12,15.12 0 0 0 -16.69,10 h -7.86 a 17,17 0 0 0 -16.3,12.43 h -13.43 a 14,14 0 0 1 -14.03,-14.02 z m 107.66,0.09 a 4.5,4.5 0 0 0 4.47,4 h 7.78 a 11.205,11.205 0 0 1 0,22.41 h -76.15 a 7.94,7.94 0 1 1 0,-15.88 h 11.54 a 4.5,4.5 0 0 0 4.5,-4.32 6.09,6.09 0 0 1 6.11,-5.87 6,6 0 0 1 3,0.78 4.5,4.5 0 0 0 6.59,-2.89 16.36,16.36 0 0 1 32.16,1.77 z m -37.44,-57.89 h 0.32 c 0.12,0 12.46,-0.79 19.19,5.49 2.94,2.75 4.37,6.46 4.37,11.36 a 18.15,18.15 0 0 1 -18.13,18.13 h -31.89 a 4.45,4.45 0 0 0 -1.21,-0.18 h -28.84 a 23.11,23.11 0 0 0 -2.86,0.18 h -27.9 a 13.43,13.43 0 0 1 0,-26.86 h 5.28 a 4.5,4.5 0 0 0 4.5,-4.32 10.79,10.79 0 0 1 16.07,-9 4.5,4.5 0 0 0 6.59,-2.89 25.43,25.43 0 0 1 14.49,-17.48 44.16,44.16 0 0 0 40.02,25.57 z m 206.05,20.52 h -127.51 a 19.46,19.46 0 1 1 0,-38.92 h 27.27 a 4.5,4.5 0 0 0 4.47,-4 27.32,27.32 0 0 1 53.71,-3 4.5,4.5 0 0 0 6.55,2.92 11.69,11.69 0 0 1 17.41,9.72 4.5,4.5 0 0 0 4.5,4.32 h 13.6 a 14.48,14.48 0 0 1 0,28.96 z"
       id="path948" />
  </g>
  <path
     style="fill:#ddffff;stroke-width:0.513731;stroke-linecap:round;stroke-linejoin:round"
     d="m 79.206126,217.40469 c -4.886705,-2.80159 -5.078222,-9.70689 -0.356688,-12.86107 1.578459,-1.05448 2.278973,-1.14649 8.728787,-1.14649 7.698031,0 10.187622,-0.59687 10.950909,-2.62541 0.240624,-0.63946 0.752515,-2.16486 1.137553,-3.38975 1.208053,-3.84309 3.868453,-4.9394 8.643303,-3.56178 2.88135,0.83132 4.87522,0.29823 5.76504,-1.54141 0.33415,-0.69081 1.3118,-2.77075 2.17257,-4.62208 1.79208,-3.85436 4.04249,-6.05967 8.08723,-7.92518 9.06596,-4.18137 20.20724,1.80522 22.02054,11.8324 0.79886,4.41749 2.38343,5.26722 9.82231,5.26722 5.59912,0 7.86782,0.64721 10.27406,2.93098 4.64676,4.41025 4.46126,12.10256 -0.38826,16.09994 -1.02377,0.84389 -2.72731,1.79377 -3.78562,2.11085 -1.37185,0.41101 -13.28908,0.57412 -41.51411,0.5682 l -39.589893,-0.008 z"
     id="path1006" />
  <path
     style="fill:#ddffff;stroke-width:0.513731;stroke-linecap:round;stroke-linejoin:round"
     d="m 183.70434,154.20977 c -5.82567,-1.4167 -10.49751,-5.24389 -13.24957,-10.85409 -1.22333,-2.49382 -1.39367,-3.42624 -1.39553,-7.63878 -0.002,-4.19919 0.17442,-5.17655 1.41185,-7.82868 1.78467,-3.82496 5.29139,-7.45367 9.19264,-9.51244 l 3.03045,-1.59924 17.2858,-0.25254 c 20.30606,-0.29667 18.83104,0.17936 20.40624,-6.58553 1.29946,-5.5807 3.54167,-9.64618 7.51229,-13.620968 5.96708,-5.973343 14.33995,-8.843544 22.37976,-7.67173 7.31354,1.06596 14.1837,5.158674 18.17222,10.825607 1.98534,2.820801 2.77216,4.473671 4.91499,10.324931 0.38611,1.05431 1.22006,1.90591 2.42754,2.47889 1.74859,0.82976 1.95192,0.82827 4.12028,-0.0302 5.31483,-2.1044 9.82012,-1.48536 13.4341,1.8459 2.1368,1.96963 3.04598,3.93217 3.98704,8.6064 0.15225,0.75624 0.74554,1.81165 1.31841,2.34536 0.93392,0.87008 2.01654,0.98912 10.47422,1.15175 9.13664,0.17568 9.52336,0.22586 12.32382,1.59976 5.49874,2.69765 8.2451,7.56083 7.88352,13.95996 -0.23213,4.10829 -2.00635,7.39681 -5.37825,9.96864 -4.4032,3.35843 -0.55416,3.19159 -72.537,3.14416 -49.33012,-0.0324 -65.80382,-0.19235 -67.71482,-0.65708 z"
     id="path1008" />
</svg>
