<?xml version="1.0" encoding="UTF-8" standalone="no"?>
<svg
   xmlns:dc="http://purl.org/dc/elements/1.1/"
   xmlns:cc="http://creativecommons.org/ns#"
   xmlns:rdf="http://www.w3.org/1999/02/22-rdf-syntax-ns#"
   xmlns:svg="http://www.w3.org/2000/svg"
   xmlns="http://www.w3.org/2000/svg"
   xmlns:sodipodi="http://sodipodi.sourceforge.net/DTD/sodipodi-0.dtd"
   xmlns:inkscape="http://www.inkscape.org/namespaces/inkscape"
   height="181.47533"
   width="94.148605"
   fill="#000000"
   data-name="Layer 22"
   viewBox="0 0 338.93499 653.31118"
   x="0px"
   y="0px"
   version="1.1"
   id="svg32"
   sodipodi:docname="canopy4.svg"
   inkscape:version="1.0.2-2 (e86c870879, 2021-01-15)">
  <metadata
     id="metadata38">
    <rdf:RDF>
      <cc:Work
         rdf:about="">
        <dc:format>image/svg+xml</dc:format>
        <dc:type
           rdf:resource="http://purl.org/dc/dcmitype/StillImage" />
        <dc:title>great_streets_icons_outlined</dc:title>
      </cc:Work>
    </rdf:RDF>
  </metadata>
  <defs
     id="defs36" />
  <sodipodi:namedview
     pagecolor="#ffffff"
     bordercolor="#666666"
     borderopacity="1"
     objecttolerance="10"
     gridtolerance="10"
     guidetolerance="10"
     inkscape:pageopacity="0"
     inkscape:pageshadow="2"
     inkscape:window-width="2560"
     inkscape:window-height="1312"
     id="namedview34"
     showgrid="false"
     inkscape:zoom="7.1276364"
     inkscape:cx="9.710936"
     inkscape:cy="4.2378365"
     inkscape:window-x="-11"
     inkscape:window-y="2149"
     inkscape:window-maximized="1"
     inkscape:current-layer="svg32"
     inkscape:document-rotation="0"
     fit-margin-top="0"
     fit-margin-left="0"
     fit-margin-right="0"
     fit-margin-bottom="0" />
  <title
     id="title2">great_streets_icons_outlined</title>
  <path
     d="m 166.70847,653.31117 v -429.09 c -0.0219,-2.46187 -2.01806,-4.44915 -4.48,-4.46 -2.48528,0 -4.5,2.01472 -4.5,4.5 v 48.16 c -9.34,-3.93 -27.83,-15.73 -27.83,-47.45 0,-6 -9,-6 -9,0 0,25.73 10.87,40.13 20,47.69 4.98696,4.1304 10.69217,7.30674 16.83,9.37 v 371.27"
     id="path4"
     sodipodi:nodetypes="cccscssccc" />
  <g
     style="fill:#000000"
     id="g982"
     transform="translate(574.79834,-51.61286)">
    <path
       d="m -259.36834,168.69026 h -5.91 c 4.66,-13.92 3.7,-26.89 -2.88,-37 -7.13,-11 -19.9,-17.29 -35,-17.29 h -5.21 a 31.27,31.27 0 0 0 -41,-23.999996 57.11,57.11 0 0 0 -110.17,7.52 h -5.87 a 44.12,44.12 0 0 0 -43,54.109996 34.38,34.38 0 0 0 -18.78,19.07 19.8,19.8 0 0 0 -23.78,14.13 h -1.4 a 22.43,22.43 0 0 0 0,44.86 h 12.37 a 23,23 0 0 0 18.39,36.86 h 13.43 a 17,17 0 0 0 16.3,12.44 h 76.12 a 20.205,20.205 0 0 0 0,-40.41 h -4.12 a 25.37,25.37 0 0 0 -19.66,-17.9 27,27 0 0 0 7,-18.13 c 0,-7.45 -2.45,-13.49 -7.27,-18 -9.18,-8.52 -23.81,-8 -25.75,-7.86 a 35.10507,35.10507 0 0 1 0.14,-70.21 h 9.72 a 4.5,4.5 0 0 0 4.47,-4 48.1,48.1 0 0 1 94.56,-5.299996 4.5,4.5 0 0 0 6.59,2.889996 22.26,22.26 0 0 1 33.2,18.58 4.5,4.5 0 0 0 4.5,4.32 h 9.24 c 12,0 22,4.81 27.49,13.19 4.37,6.74 5.42,15.36 3.15,24.9 a 20.71,20.71 0 0 0 -21.68,-7.68 36.33,36.33 0 0 0 -69.19,5 h -23.51 a 28.46,28.46 0 1 0 0,56.92 h 127.51 a 23.505,23.505 0 0 0 0,-47.01 z m -276.27,75.24 a 14,14 0 0 1 11.86,-13.84 h 59.79 a 25.19,25.19 0 0 0 -3.34,5.43 15.12,15.12 0 0 0 -16.69,10 h -7.86 a 17,17 0 0 0 -16.3,12.43 h -13.43 a 14,14 0 0 1 -14.03,-14.02 z m 107.66,0.09 a 4.5,4.5 0 0 0 4.47,4 h 7.78 a 11.205,11.205 0 0 1 0,22.41 h -76.15 a 7.94,7.94 0 1 1 0,-15.88 h 11.54 a 4.5,4.5 0 0 0 4.5,-4.32 6.09,6.09 0 0 1 6.11,-5.87 6,6 0 0 1 3,0.78 4.5,4.5 0 0 0 6.59,-2.89 16.36,16.36 0 0 1 32.16,1.77 z m -37.44,-57.89 h 0.32 c 0.12,0 12.46,-0.79 19.19,5.49 2.94,2.75 4.37,6.46 4.37,11.36 a 18.15,18.15 0 0 1 -18.13,18.13 h -31.89 a 4.45,4.45 0 0 0 -1.21,-0.18 h -28.84 a 23.11,23.11 0 0 0 -2.86,0.18 h -27.9 a 13.43,13.43 0 0 1 0,-26.86 h 5.28 a 4.5,4.5 0 0 0 4.5,-4.32 10.79,10.79 0 0 1 16.07,-9 4.5,4.5 0 0 0 6.59,-2.89 25.43,25.43 0 0 1 14.49,-17.48 44.16,44.16 0 0 0 40.02,25.57 z m 206.05,20.52 h -127.51 a 19.46,19.46 0 1 1 0,-38.92 h 27.27 a 4.5,4.5 0 0 0 4.47,-4 27.32,27.32 0 0 1 53.71,-3 4.5,4.5 0 0 0 6.55,2.92 11.69,11.69 0 0 1 17.41,9.72 4.5,4.5 0 0 0 4.5,4.32 h 13.6 a 14.48,14.48 0 0 1 0,28.96 z"
       id="path948" />
  </g>
  <path
     style="fill:#ddffff;stroke-width:0.142703;stroke-linecap:round;stroke-linejoin:round"
     d="m 22.001701,60.390189 c -1.357418,-0.778218 -1.410617,-2.696357 -0.09908,-3.572519 0.438461,-0.292911 0.633048,-0.318469 2.424663,-0.318469 2.138342,0 2.829895,-0.165796 3.041919,-0.72928 0.06684,-0.177629 0.209032,-0.601349 0.315987,-0.941598 0.335569,-1.067524 1.07457,-1.372056 2.400918,-0.989382 0.800374,0.230922 1.354226,0.08284 1.601399,-0.42817 0.09282,-0.191892 0.36439,-0.769652 0.603493,-1.28391 0.497799,-1.070657 1.122912,-1.683244 2.246453,-2.20144 2.518321,-1.161493 5.613122,0.501449 6.116816,3.286777 0.221905,1.227082 0.662062,1.463116 2.72842,1.463116 1.555311,0 2.185503,0.179781 2.853903,0.814162 1.290769,1.22507 1.23924,3.361823 -0.107848,4.472206 -0.284382,0.234413 -0.757586,0.498268 -1.051563,0.586346 -0.381067,0.114171 -3.69141,0.159479 -11.531697,0.157834 l -10.997191,-0.0023 z"
     id="path1006"
     transform="scale(3.6000001)" />
  <path
     style="fill:#ddffff;stroke-width:0.142703;stroke-linecap:round;stroke-linejoin:round"
     d="m 51.028981,42.836046 c -1.618242,-0.393529 -2.915975,-1.456637 -3.680435,-3.015026 -0.339813,-0.692727 -0.387131,-0.951732 -0.387647,-2.121881 -5.15e-4,-1.166443 0.04845,-1.437932 0.39218,-2.174633 0.495741,-1.06249 1.46983,-2.070466 2.55351,-2.642346 l 0.841794,-0.444232 4.801611,-0.07015 c 5.640572,-0.08241 5.230843,0.04982 5.668399,-1.829315 0.360962,-1.550195 0.983798,-2.679494 2.086747,-3.783602 1.657522,-1.659262 3.983318,-2.45654 6.2166,-2.131036 2.031539,0.2961 3.939917,1.432965 5.047839,3.007113 0.551483,0.783555 0.770043,1.242686 1.365274,2.868035 0.107253,0.292866 0.338906,0.52942 0.674316,0.688582 0.485721,0.23049 0.542201,0.230075 1.144523,-0.0084 1.476341,-0.584557 2.72781,-0.4126 3.731694,0.512749 0.593557,0.547121 0.846105,1.092269 1.107512,2.390667 0.04229,0.210066 0.207094,0.503236 0.366225,0.651489 0.259422,0.241689 0.56015,0.274757 2.909504,0.31993 2.537958,0.0488 2.645378,0.06274 3.423284,0.444379 1.527429,0.749347 2.290306,2.10023 2.189866,3.877765 -0.06448,1.141193 -0.557319,2.054671 -1.493957,2.769068 -1.223111,0.932898 -0.153934,0.886553 -20.149167,0.873378 -13.70281,-0.009 -18.278837,-0.05343 -18.809672,-0.182522 z"
     id="path1008"
     transform="scale(3.6000001)" />
</svg>
