<svg height='100px' width='100px'  fill="#000000" xmlns="http://www.w3.org/2000/svg" data-name="Layer 22" viewBox="0 0 360 360" x="0px" y="0px"><title>great_streets_icons_outlined</title><path d="M169.14,235.54a4.5,4.5,0,0,0-4.5,4.5V288.2c-9.34-3.93-27.83-15.73-27.83-47.45a4.5,4.5,0,0,0-9,0c0,25.73,10.87,40.13,20,47.69a52.72,52.72,0,0,0,16.83,9.37v4.07c0,12.74-3,22-8.79,27.5A19.17,19.17,0,0,1,143,334.76h-5.51a4.47,4.47,0,0,0-4.45,4.45v0.11a4.47,4.47,0,0,0,4.45,4.45l5.76,0a28.47,28.47,0,0,0,18.59-7.68c7.82-7.26,11.78-18.76,11.78-34.2V240A4.5,4.5,0,0,0,169.14,235.54Z"></path><path d="M238.07,334.76h-5.58a20.15,20.15,0,0,1-12.94-5.29c-5.91-5.49-8.91-14.77-8.91-27.6V238.31a57.22,57.22,0,0,0,18.44-10.23c9.9-8.2,21.7-23.83,21.7-51.78a4.5,4.5,0,0,0-9,0c0,35.75-21,48.42-31.13,52.47V176.3a4.5,4.5,0,0,0-9,0v58.54s0,0,0,0v67c0,15.43,4,26.94,11.78,34.2a28.81,28.81,0,0,0,19,7.69h5.65a4.46,4.46,0,0,0,4.45-4.45v-0.11A4.47,4.47,0,0,0,238.07,334.76Z"></path><path d="M79.74,95A21.75,21.75,0,1,1,101.5,73.29a4.5,4.5,0,0,1-9,0A12.75,12.75,0,1,0,79.74,86,4.5,4.5,0,0,1,79.74,95Z"></path><path d="M79.74,36.85a4.5,4.5,0,0,1-4.5-4.5V21.53a4.5,4.5,0,0,1,9,0V32.35A4.5,4.5,0,0,1,79.74,36.85Z"></path><path d="M108.69,48.84a4.5,4.5,0,0,1-3.18-7.68l7.65-7.65a4.5,4.5,0,0,1,6.36,6.36l-7.65,7.65A4.49,4.49,0,0,1,108.69,48.84Z"></path><path d="M43.14,114.39A4.5,4.5,0,0,1,40,106.71l7.65-7.65A4.5,4.5,0,0,1,54,105.42l-7.65,7.65A4.49,4.49,0,0,1,43.14,114.39Z"></path><path d="M38.8,77.79H28a4.5,4.5,0,0,1,0-9H38.8A4.5,4.5,0,0,1,38.8,77.79Z"></path><path d="M50.79,48.84a4.49,4.49,0,0,1-3.18-1.32L40,39.87a4.5,4.5,0,0,1,6.36-6.36L54,41.16A4.5,4.5,0,0,1,50.79,48.84Z"></path><path d="M325.51,133.84H319.6c4.66-13.92,3.7-26.89-2.88-37-7.13-11-19.9-17.29-35-17.29h-5.21a31.27,31.27,0,0,0-41-24,57.11,57.11,0,0,0-110.17,7.52h-5.87a44.12,44.12,0,0,0-43,54.11,34.38,34.38,0,0,0-18.78,19.07,19.8,19.8,0,0,0-23.78,14.13H32.51a22.43,22.43,0,0,0,0,44.86H44.88A23,23,0,0,0,63.27,232.1H76.7A17,17,0,0,0,93,244.54h76.12a20.2,20.2,0,0,0,0-40.41H165a25.37,25.37,0,0,0-19.66-17.9,27,27,0,0,0,7-18.13c0-7.45-2.45-13.49-7.27-18-9.18-8.52-23.81-8-25.75-7.86a35.1,35.1,0,0,1,.14-70.21h9.72a4.5,4.5,0,0,0,4.47-4,48.1,48.1,0,0,1,94.56-5.3,4.5,4.5,0,0,0,6.59,2.89A22.26,22.26,0,0,1,268,84.2a4.5,4.5,0,0,0,4.5,4.32h9.24c12,0,22,4.81,27.49,13.19,4.37,6.74,5.42,15.36,3.15,24.9a20.71,20.71,0,0,0-21.68-7.68,36.33,36.33,0,0,0-69.19,5H198a28.46,28.46,0,1,0,0,56.92H325.51A23.48,23.48,0,0,0,325.51,133.84ZM49.24,209.08A14,14,0,0,1,61.1,195.24h59.79a25.19,25.19,0,0,0-3.34,5.43,15.12,15.12,0,0,0-16.69,10H93A17,17,0,0,0,76.7,223.1H63.27A14,14,0,0,1,49.24,209.08Zm107.66,0.09a4.5,4.5,0,0,0,4.47,4h7.78a11.2,11.2,0,0,1,0,22.41H93a7.94,7.94,0,1,1,0-15.88h11.54a4.5,4.5,0,0,0,4.5-4.32,6.09,6.09,0,0,1,6.11-5.87,6,6,0,0,1,3,.78,4.5,4.5,0,0,0,6.59-2.89A16.36,16.36,0,0,1,156.9,209.17Zm-37.44-57.89h0.32c0.12,0,12.46-.79,19.19,5.49,2.94,2.75,4.37,6.46,4.37,11.36a18.15,18.15,0,0,1-18.13,18.13H93.32a4.45,4.45,0,0,0-1.21-.18H63.27a23.11,23.11,0,0,0-2.86.18H32.51a13.43,13.43,0,0,1,0-26.86h5.28a4.5,4.5,0,0,0,4.5-4.32,10.79,10.79,0,0,1,16.07-9,4.5,4.5,0,0,0,6.59-2.89,25.43,25.43,0,0,1,14.49-17.48A44.16,44.16,0,0,0,119.46,151.28ZM325.51,171.8H198a19.46,19.46,0,1,1,0-38.92h27.27a4.5,4.5,0,0,0,4.47-4,27.32,27.32,0,0,1,53.71-3A4.5,4.5,0,0,0,290,128.8a11.69,11.69,0,0,1,17.41,9.72,4.5,4.5,0,0,0,4.5,4.32h13.6A14.48,14.48,0,0,1,325.51,171.8Z"></path><path d="M344.49,213.07H269.2a4.5,4.5,0,0,1,0-9h75.29A4.5,4.5,0,0,1,344.49,213.07Z"></path><path d="M344.49,245.71h-98a4.5,4.5,0,1,1,0-9h98A4.5,4.5,0,0,1,344.49,245.71Z"></path><path d="M344.49,278.35H234.87a4.5,4.5,0,0,1,0-9H344.49A4.5,4.5,0,1,1,344.49,278.35Z"></path><path d="M344.49,311h-98a4.5,4.5,0,0,1,0-9h98A4.5,4.5,0,0,1,344.49,311Z"></path><path d="M344.49,343.63H262.87a4.5,4.5,0,1,1,0-9h81.63A4.5,4.5,0,0,1,344.49,343.63Z"></path></svg>