<?xml version="1.0" encoding="UTF-8" standalone="no"?>
<svg
   xmlns:dc="http://purl.org/dc/elements/1.1/"
   xmlns:cc="http://creativecommons.org/ns#"
   xmlns:rdf="http://www.w3.org/1999/02/22-rdf-syntax-ns#"
   xmlns:svg="http://www.w3.org/2000/svg"
   xmlns="http://www.w3.org/2000/svg"
   xmlns:sodipodi="http://sodipodi.sourceforge.net/DTD/sodipodi-0.dtd"
   xmlns:inkscape="http://www.inkscape.org/namespaces/inkscape"
   height="100px"
   width="100px"
   fill="#000000"
   data-name="Layer 22"
   viewBox="0 0 360 360"
   x="0px"
   y="0px"
   version="1.1"
   id="svg32"
   sodipodi:docname="canopy2.svg"
   inkscape:version="1.0.2-2 (e86c870879, 2021-01-15)">
  <metadata
     id="metadata38">
    <rdf:RDF>
      <cc:Work
         rdf:about="">
        <dc:format>image/svg+xml</dc:format>
        <dc:type
           rdf:resource="http://purl.org/dc/dcmitype/StillImage" />
        <dc:title>great_streets_icons_outlined</dc:title>
      </cc:Work>
    </rdf:RDF>
  </metadata>
  <defs
     id="defs36" />
  <sodipodi:namedview
     pagecolor="#ffffff"
     bordercolor="#666666"
     borderopacity="1"
     objecttolerance="10"
     gridtolerance="10"
     guidetolerance="10"
     inkscape:pageopacity="0"
     inkscape:pageshadow="2"
     inkscape:window-width="3840"
     inkscape:window-height="2035"
     id="namedview34"
     showgrid="false"
     inkscape:zoom="14.255273"
     inkscape:cx="48.258754"
     inkscape:cy="50.115054"
     inkscape:window-x="843"
     inkscape:window-y="81"
     inkscape:window-maximized="1"
     inkscape:current-layer="svg32" />
  <title
     id="title2">great_streets_icons_outlined</title>
  <path
     d="M 346.42,366.69 V 225.6 c -0.0219,-2.46187 -2.01806,-4.44915 -4.48,-4.46 -2.48528,0 -4.5,2.01472 -4.5,4.5 v 48.16 c -9.34,-3.93 -27.83,-15.73 -27.83,-47.45 0,-6 -9,-6 -9,0 0,25.73 10.87,40.13 20,47.69 4.98696,4.1304 10.69217,7.30674 16.83,9.37 v 83.27"
     id="path4"
     sodipodi:nodetypes="cccscssccc" />
  <path
     d="M 362.52433,16.895179 C 335.95491,18.66028 299.14302,23.218538 294.10561,48.67 h -6.03122 c -29.1931,-0.01667 -50.79113,26.435191 -44.18099,54.11 -8.81454,3.55898 -15.77457,10.43756 -19.2958,19.07 -10.73498,-2.52561 -21.57966,3.74601 -24.43311,14.13 h -1.43845 c -12.72799,0 -23.04603,10.04225 -23.04603,22.43 0,12.38775 10.31804,22.43 23.04603,22.43 h 12.70974 c -11.76646,15.16579 -0.63073,36.88906 18.89508,36.86 h 13.79885 c 2.09564,7.3255 8.93478,12.40553 16.74768,12.44 h 78.21063 c 11.4654,0 20.75992,-9.04609 20.75992,-20.205 0,-11.15891 -9.29452,-20.205 -20.75992,-20.205 h -4.23315 c -2.72443,-9.19784 -10.53615,-16.12013 -20.19996,-17.9 4.62648,-4.96497 7.19011,-11.42729 7.19225,-18.13 0,-7.45 -2.51729,-13.49 -7.46967,-18 -9.43213,-8.52 -24.46394,-8 -26.45722,-7.86 -19.92046,-0.0387 -36.03695,-15.78704 -35.99723,-35.175 0.0398,-19.387956 16.22061,-35.07366 36.14107,-35.035 h 9.98696 c 2.3539,-0.0011 4.33123,-1.723205 4.59277,-4 2.8751,-23.141524 37.18074,-26.546017 61.09351,-27.850478 M 215.91553,194.68 c -0.002,-6.90741 5.17201,-12.78415 12.18573,-13.84 h 61.43213 c -1.37557,1.66125 -2.52872,3.48586 -3.43173,5.43 -7.45323,-1.1642 -14.68763,3.05451 -17.14839,10 h -8.07588 c -7.81002,0.0332 -14.64822,5.10847 -16.74768,12.43 h -13.79885 c -7.96442,0.0166 -14.42673,-6.26847 -14.41533,-14.02 z m 110.61687,0.09 c 0.26154,2.27679 2.23887,3.99891 4.59277,4 h 7.99368 c 6.35831,0 11.51274,5.01665 11.51274,11.205 0,6.18835 -5.15443,11.205 -11.51274,11.205 h -78.24146 c -4.50558,0 -8.15807,-3.55486 -8.15807,-7.94 0,-4.38514 3.65249,-7.94 8.15807,-7.94 h 11.85695 c 2.48302,0.002 4.52426,-1.90528 4.62359,-4.32 0.12198,-3.28497 2.90044,-5.88294 6.27781,-5.87 1.07993,-0.007 2.14286,0.26172 3.08239,0.78 2.68267,1.47159 6.066,0.0275 6.771,-2.89 1.872,-7.71174 9.15333,-13.00912 17.28271,-12.57366 8.12936,0.43546 14.76942,6.47855 15.76056,14.34366 z m -38.46829,-57.89 h 0.32879 c 0.1233,0 12.80221,-0.79 19.71705,5.49 3.02075,2.75 4.49003,6.46 4.49003,11.36 -0.0113,10.00835 -8.34472,18.11898 -18.62794,18.13 h -32.76586 c -0.40392,-0.11542 -0.82228,-0.17599 -1.24323,-0.18 h -29.63209 c -0.9824,7.8e-4 -1.9638,0.0609 -2.93855,0.18 h -28.66627 c -7.6209,0 -13.79885,-6.01282 -13.79885,-13.43 0,-7.41718 6.17795,-13.43 13.79885,-13.43 h 5.42501 c 2.48303,0.002 4.52428,-1.90528 4.62359,-4.32 0.31178,-8.06685 9.28129,-12.95595 16.51137,-9 2.68267,1.47159 6.066,0.0275 6.77099,-2.89 1.86628,-7.77913 7.37985,-14.25264 14.88797,-17.48 7.42993,15.58158 23.46953,25.55583 41.11914,25.57 z"
     id="path20"
     sodipodi:nodetypes="ccccccsssccccssscccccscccccccccccccccsssssscccccsccscccccccssscccccc"
     style="stroke-width:1.01364" />
</svg>
