<?xml version="1.0" encoding="UTF-8" standalone="no"?>
<svg
   xmlns:dc="http://purl.org/dc/elements/1.1/"
   xmlns:cc="http://creativecommons.org/ns#"
   xmlns:rdf="http://www.w3.org/1999/02/22-rdf-syntax-ns#"
   xmlns:svg="http://www.w3.org/2000/svg"
   xmlns="http://www.w3.org/2000/svg"
   xmlns:sodipodi="http://sodipodi.sourceforge.net/DTD/sodipodi-0.dtd"
   xmlns:inkscape="http://www.inkscape.org/namespaces/inkscape"
   height="181.47533"
   width="94.148605"
   fill="#000000"
   data-name="Layer 22"
   viewBox="0 0 338.93499 653.31118"
   x="0px"
   y="0px"
   version="1.1"
   id="svg32"
   sodipodi:docname="roots2.svg"
   inkscape:version="1.0.2-2 (e86c870879, 2021-01-15)">
  <metadata
     id="metadata38">
    <rdf:RDF>
      <cc:Work
         rdf:about="">
        <dc:format>image/svg+xml</dc:format>
        <dc:type
           rdf:resource="http://purl.org/dc/dcmitype/StillImage" />
        <dc:title>great_streets_icons_outlined</dc:title>
      </cc:Work>
    </rdf:RDF>
  </metadata>
  <defs
     id="defs36">
    <clipPath
       clipPathUnits="userSpaceOnUse"
       id="clipPath872">
      <rect
         style="fill:#ff0000;stroke-width:3.66167;stroke-linecap:round;stroke-linejoin:round"
         id="rect874"
         width="102.67857"
         height="193.21429"
         x="243.92856"
         y="-10.892857"
         ry="6.428556" />
    </clipPath>
    <clipPath
       clipPathUnits="userSpaceOnUse"
       id="clipPath876">
      <rect
         style="fill:#ff0000;stroke-width:3.66167;stroke-linecap:round;stroke-linejoin:round"
         id="rect878"
         width="102.67857"
         height="193.21429"
         x="243.92856"
         y="-10.892857"
         ry="6.428556" />
    </clipPath>
  </defs>
  <sodipodi:namedview
     pagecolor="#ffffff"
     bordercolor="#666666"
     borderopacity="1"
     objecttolerance="10"
     gridtolerance="10"
     guidetolerance="10"
     inkscape:pageopacity="0"
     inkscape:pageshadow="2"
     inkscape:window-width="2560"
     inkscape:window-height="1312"
     id="namedview34"
     showgrid="false"
     inkscape:zoom="3.5638182"
     inkscape:cx="-133.37586"
     inkscape:cy="90.081375"
     inkscape:window-x="-11"
     inkscape:window-y="2149"
     inkscape:window-maximized="1"
     inkscape:current-layer="svg32"
     inkscape:document-rotation="0"
     fit-margin-top="0"
     fit-margin-left="0"
     fit-margin-right="0"
     fit-margin-bottom="0" />
  <title
     id="title2">great_streets_icons_outlined</title>
  <path
     d="m 166.70847,149.31116 v -319.49569 c -0.0219,-4.72474 -2.01806,-8.53866 -4.48,-8.55948 -2.48528,0 -4.5,3.86658 -4.5,8.63625 v 92.42712 c -9.34,-7.542329 -27.83,-30.18851 -27.83,-91.06451 0,-11.51501 -9,-11.51501 -9,0 0,49.38019 10.87,77.016202 20,91.525111 4.98696,7.92693 10.69217,14.02286 16.83,17.982602 V 149.29197"
     id="path4"
     sodipodi:nodetypes="cccscssccc"
     style="stroke-width:1.38534" />
  <path
     d="m 346.42,-362.06 v 537.09 c -0.0219,2.46187 -2.01806,4.44915 -4.48,4.46 -2.48528,0 -4.5,-2.01472 -4.5,-4.5 V 98.03 c -9.34,3.93 -27.83,15.73 -27.83,47.45 0,6 -9,6 -9,0 0,-25.73 10.87,-40.13 20,-47.69 4.98696,-4.1304 10.69217,-7.30674 16.83,-9.37 v -450.47"
     id="path4-71"
     sodipodi:nodetypes="cccscssccc"
     style="fill:#000000"
     clip-path="url(#clipPath876)"
     transform="translate(-179.75242,29.79541)" />
  <path
     d="m 351.4226,0.34172193 h -87.7337 c -2.34931,0.0219 -4.24573,2.01805997 -4.25608,4.47999897 0,2.48528 1.9226,4.5000001 4.29426,4.5000001 h 73.44131 c -3.75032,9.34 -15.01081,27.830001 -45.28054,27.830001 -5.72568,0 -5.72568,9 0,9 24.5536,0 38.29521,-10.87 45.50956,-20 3.94156,-4.986961 6.97267,-10.692171 8.9416,-16.830001 h 5.07405"
     id="path4-7"
     sodipodi:nodetypes="cccscssccc"
     style="fill:#000000;stroke-width:0.976872"
     clip-path="url(#clipPath872)"
     transform="translate(-180.79414,29.5113)" />
</svg>
