<?xml version="1.0" encoding="UTF-8" standalone="no"?>
<svg
   xmlns:dc="http://purl.org/dc/elements/1.1/"
   xmlns:cc="http://creativecommons.org/ns#"
   xmlns:rdf="http://www.w3.org/1999/02/22-rdf-syntax-ns#"
   xmlns:svg="http://www.w3.org/2000/svg"
   xmlns="http://www.w3.org/2000/svg"
   xmlns:sodipodi="http://sodipodi.sourceforge.net/DTD/sodipodi-0.dtd"
   xmlns:inkscape="http://www.inkscape.org/namespaces/inkscape"
   height="100px"
   width="100px"
   fill="#000000"
   data-name="Layer 22"
   viewBox="0 0 360 360"
   x="0px"
   y="0px"
   version="1.1"
   id="svg32"
   sodipodi:docname="root_section.svg"
   inkscape:version="1.0.2-2 (e86c870879, 2021-01-15)">
  <metadata
     id="metadata38">
    <rdf:RDF>
      <cc:Work
         rdf:about="">
        <dc:format>image/svg+xml</dc:format>
        <dc:type
           rdf:resource="http://purl.org/dc/dcmitype/StillImage" />
        <dc:title>great_streets_icons_outlined</dc:title>
      </cc:Work>
    </rdf:RDF>
  </metadata>
  <defs
     id="defs36" />
  <sodipodi:namedview
     pagecolor="#ffffff"
     bordercolor="#666666"
     borderopacity="1"
     objecttolerance="10"
     gridtolerance="10"
     guidetolerance="10"
     inkscape:pageopacity="0"
     inkscape:pageshadow="2"
     inkscape:window-width="2296"
     inkscape:window-height="2005"
     id="namedview34"
     showgrid="false"
     inkscape:zoom="14.255273"
     inkscape:cx="50.54371"
     inkscape:cy="54.326131"
     inkscape:window-x="2376"
     inkscape:window-y="99"
     inkscape:window-maximized="0"
     inkscape:current-layer="svg32"
     inkscape:document-rotation="0" />
  <title
     id="title2">great_streets_icons_outlined</title>
  <path
     d="M 354.3079,9.124216 H 218.08311 c -1.12288,0 -2.03308,-1.993258 -2.03308,-4.454034 0,-2.460777 0.9102,-4.454036 2.03308,-4.454036 H 354.3079 c 1.1237,0 2.03391,1.993259 2.03391,4.454036 0,2.460776 -0.91021,4.454034 -2.03391,4.454034 z"
     id="path34"
     style="stroke-width:2.13667" />
  <path
     d="m 224.28239,198.45657 c -0.006,0 -0.01,0 -0.0149,0 -2.50797,-0.0113 -4.53541,-2.12157 -4.52616,-4.72182 0.12568,-40.16019 32.40206,-69.87732 63.61578,-98.610196 31.09541,-28.629533 60.46832,-55.669762 52.96107,-89.1283276 -0.56739,-2.5313218 0.95367,-5.05880131 3.39693,-5.64853981 2.45437,-0.59739 4.88652,0.98803181 5.45208,3.51931981 3.01992,13.4684256 1.06825,25.8875896 -4.09186,37.5867686 0.011,0.179986 0.0149,0.36762 0.007,0.555264 -1.55059,37.265079 6.89366,59.541401 12.47883,74.285061 4.07338,10.74948 7.01936,18.51575 3.70743,25.91823 -3.04209,6.79741 -10.76744,11.75281 -27.5451,17.6732 -2.37305,0.84253 -4.95493,-0.47867 -5.76259,-2.93723 -0.80948,-2.45855 0.4602,-5.13156 2.83509,-5.97022 13.58031,-4.79455 20.43701,-8.71982 22.22974,-12.72549 1.67817,-3.74912 -0.54704,-9.6236 -3.91806,-18.51959 -5.03257,-13.27695 -12.27183,-32.374773 -13.19777,-62.310176 -11.05203,15.766139 -26.91668,30.371949 -42.52076,44.736456 -29.72036,27.36196 -60.45353,55.65447 -60.56627,91.60604 -0.008,2.59266 -2.03856,4.69125 -4.54095,4.69125 z"
     id="path2"
     style="stroke-width:3.28249" />
</svg>
