<?xml version="1.0" encoding="UTF-8" standalone="no"?>
<svg
   xmlns:dc="http://purl.org/dc/elements/1.1/"
   xmlns:cc="http://creativecommons.org/ns#"
   xmlns:rdf="http://www.w3.org/1999/02/22-rdf-syntax-ns#"
   xmlns:svg="http://www.w3.org/2000/svg"
   xmlns="http://www.w3.org/2000/svg"
   height="100px"
   width="100px"
   fill="#000000"
   data-name="Layer 22"
   viewBox="0 0 360 360"
   x="0px"
   y="0px"
   version="1.1"
   id="svg32">
  <metadata
     id="metadata38">
    <rdf:RDF>
      <cc:Work
         rdf:about="">
        <dc:format>image/svg+xml</dc:format>
        <dc:type
           rdf:resource="http://purl.org/dc/dcmitype/StillImage" />
        <dc:title>great_streets_icons_outlined</dc:title>
      </cc:Work>
    </rdf:RDF>
  </metadata>
  <defs
     id="defs36">
    <clipPath
       clipPathUnits="userSpaceOnUse"
       id="clipPath872">
      <rect
         style="fill:#ff0000;stroke-width:3.66167;stroke-linecap:round;stroke-linejoin:round"
         id="rect874"
         width="102.67857"
         height="193.21429"
         x="243.92856"
         y="-10.892857"
         ry="6.428556" />
    </clipPath>
    <clipPath
       clipPathUnits="userSpaceOnUse"
       id="clipPath876">
      <rect
         style="fill:#ff0000;stroke-width:3.66167;stroke-linecap:round;stroke-linejoin:round"
         id="rect878"
         width="102.67857"
         height="193.21429"
         x="243.92856"
         y="-10.892857"
         ry="6.428556" />
    </clipPath>
  </defs>
  <title
     id="title2">great_streets_icons_outlined</title>
  <path
     d="m 346.42,-362.06 v 537.09 c -0.0219,2.46187 -2.01806,4.44915 -4.48,4.46 -2.48528,0 -4.5,-2.01472 -4.5,-4.5 V 98.03 c -9.34,3.93 -27.83,15.73 -27.83,47.45 0,6 -9,6 -9,0 0,-25.73 10.87,-40.13 20,-47.69 4.98696,-4.1304 10.69217,-7.30674 16.83,-9.37 v -450.47"
     id="path4"
     style="fill:#000000"
     clip-path="url(#clipPath876)" />
  <path
     d="M 776.2226,0.34172193 H 263.6889 c -2.34931,0.0219 -4.24573,2.01805997 -4.25608,4.47999897 0,2.48528 1.9226,4.5000001 4.29426,4.5000001 h 73.44131 c -3.75032,9.34 -15.01081,27.830001 -45.28054,27.830001 -5.72568,0 -5.72568,9 0,9 24.5536,0 38.29521,-10.87 45.50956,-20 3.94156,-4.986961 6.97267,-10.692171 8.9416,-16.830001 h 429.87405"
     id="path4-7"
     style="fill:#000000;stroke-width:0.976872"
     clip-path="url(#clipPath872)"
     transform="translate(-1.0417198,-0.2841054)" />
</svg>
